# xmcd CD database file
#
# Track frame offsets:
#	150
#	19710
#	43780
#	64115
#	89100
#	112147
#	134207
#	160352
#
# Disc length: 2436 seconds
#
# Revision: 0
# Processed by: cddbd v1.5.1PL0 Copyright (c) Steve Scherf et al.
# Submitted via: CDex 1.50beta10
#
DISCID=79098208
DTITLE=Various Artist - West Coast Jazz
DYEAR=1900
DGENRE=Jazz
TTITLE0=David Benoit and Russ Freeman - After The Love Has Gone
TTITLE1=Rippingtons - Tourist In Paradise
TTITLE2=The Brecker Brothers - Scrunch
TTITLE3=Chick Corea - Blue Miles
TTITLE4=Patti Austin - Through The Test Of Time
TTITLE5=Acoustic Alchemy - Lazeez
TTITLE6=Larry Carlton - Smiles And Smiles To Go
TTITLE7=Dave Cruisin and Lee Ritenour - Early A.M. Attitude
EXTD=
EXTT0=
EXTT1=
EXTT2=
EXTT3=
EXTT4=
EXTT5=
EXTT6=
EXTT7=
PLAYORDER=
